<?xml version="1.0" encoding="UTF-8" standalone="no"?><!DOCTYPE svg PUBLIC "-//W3C//DTD SVG 1.1//EN" "http://www.w3.org/Graphics/SVG/1.1/DTD/svg11.dtd"><svg width="100%" height="100%" viewBox="0 0 12230 2813" version="1.1" xmlns="http://www.w3.org/2000/svg" xmlns:xlink="http://www.w3.org/1999/xlink" xml:space="preserve" xmlns:serif="http://www.serif.com/" style="fill-rule:evenodd;clip-rule:evenodd;stroke-linejoin:round;stroke-miterlimit:2;"><g><g id="Artboard1"><rect x="-0.001" y="0" width="12225.2" height="2811.04" style="fill:none;"/><g><g><g><g><path d="M2900.59,433.143l-2640.86,0c-38.184,0 -69.426,-31.23 -69.426,-69.399l-0,-271.595c-0,-38.169 31.242,-69.399 69.426,-69.399l2640.86,-0c38.185,-0 69.427,31.23 69.427,69.399l-0,271.595c-0,38.169 -31.242,69.399 -69.427,69.399" style="fill:#fff;fill-rule:nonzero;"/></g><g><path d="M557.984,807.506c-71.527,0 -138.489,32.843 -188.528,92.457c-61.026,72.731 -87.026,175.147 -69.531,273.989l196.304,1110.74c25.045,141.661 133.594,244.459 258.093,244.459l1651.69,-0c124.482,-0 233.047,-102.798 258.076,-244.459l196.338,-1110.74c17.461,-98.842 -8.54,-201.241 -69.566,-273.971c-50.039,-59.632 -117.018,-92.475 -188.545,-92.475l-2044.33,0Zm1848.03,1961.87l-1651.69,-0c-241.309,-0 -449.381,-186.251 -494.751,-442.872l-196.303,-1110.76c-30.149,-170.428 14.354,-341.809 122.069,-470.146c95.079,-113.347 230.912,-178.322 372.647,-178.322l2044.33,0c141.752,0 277.585,65.01 372.682,178.322c107.715,128.371 152.218,299.718 122.086,470.146l-196.338,1110.76c-45.387,256.621 -253.424,442.872 -494.733,442.872" style="fill:#fff;fill-rule:nonzero;"/></g><g><path d="M2637.57,531.237l-0,-48.041c41.968,-0 76.126,-34.145 76.126,-76.079c-0,-41.952 -34.158,-76.062 -76.126,-76.062l-2122.84,-0c-41.951,-0 -76.074,34.11 -76.074,76.062c-0,41.934 34.123,76.079 76.074,76.079l-0,48.041c-68.455,0 -124.152,-55.693 -124.152,-124.12c-0,-68.446 55.697,-124.104 124.152,-124.104l2122.84,0c68.489,0 124.204,55.658 124.204,124.104c-0,68.427 -55.715,124.12 -124.204,124.12" style="fill:#fff;fill-rule:nonzero;"/></g><g><path d="M2637.57,731.418l-2122.84,0c-68.455,0 -124.152,-55.675 -124.152,-124.103c-0,-68.428 55.697,-124.121 124.152,-124.121l-0,48.042c-41.951,-0 -76.074,34.127 -76.074,76.079c-0,41.952 34.123,76.062 76.074,76.062l2122.84,-0c41.968,-0 76.126,-34.11 76.126,-76.062c-0,-41.952 -34.158,-76.079 -76.126,-76.079l-0,-48.042c68.489,-0 124.204,55.693 124.204,124.121c-0,68.428 -55.715,124.103 -124.204,124.103" style="fill:#fff;fill-rule:nonzero;"/></g><g><path d="M514.731,483.191l773.029,24.029l-773.029,24.012l-0,-48.041Z" style="fill:#fff;fill-rule:nonzero;"/></g><g><path d="M2737.72,531.237l-965.288,-24.029l965.288,-24.012l0,48.041Z" style="fill:#fff;fill-rule:nonzero;"/></g></g><g><path d="M2715.77,1349.45c-272.069,19.858 -578.533,118.7 -763.812,264.022c-827.731,649.213 -1481.67,-141.235 -1482.51,-140.706c0,0 94.9,517.563 144.505,788.076c17.054,93.024 98.025,160.645 192.604,160.853c356.486,0.769 1201.62,2.58 1560.83,3.35c95.894,0.208 177.891,-68.919 193.902,-163.465c51,-301.143 154.475,-912.13 154.475,-912.13Z" style="fill:url(#_Linear1);"/></g></g><g><g><path d="M4159.66,1935.14c-0,-47.738 -15.277,-85.929 -49.648,-112.662c-34.372,-26.734 -93.568,-53.467 -179.497,-82.11c-84.02,-28.643 -154.672,-55.377 -208.139,-82.11c-175.678,-87.839 -263.517,-206.23 -263.517,-357.083c0,-74.472 21.005,-141.306 64.925,-198.592c43.919,-57.286 106.934,-103.115 187.134,-135.577c80.201,-30.553 169.949,-47.738 269.245,-47.738c97.386,-0 185.225,17.185 263.516,53.467c76.382,34.371 137.487,84.019 179.497,148.943c43.919,63.015 64.924,137.487 64.924,219.597l-326.531,-0c0,-55.377 -17.186,-97.386 -51.557,-127.939c-32.463,-30.553 -78.291,-45.829 -137.487,-45.829c-57.286,0 -105.025,11.457 -137.487,38.191c-34.371,24.824 -51.557,59.195 -51.557,97.386c-0,36.281 19.095,66.834 55.376,95.477c38.191,28.643 103.115,57.286 196.683,87.839c95.477,30.552 171.858,63.014 232.963,97.386c145.125,84.019 219.597,200.501 219.597,349.445c-0,118.391 -45.829,211.958 -135.577,280.701c-87.839,66.834 -211.959,101.206 -366.631,101.206c-110.753,-0 -210.049,-21.005 -299.798,-59.196c-89.748,-40.1 -156.582,-93.567 -200.501,-162.31c-45.829,-68.744 -68.743,-148.944 -68.743,-236.783l328.44,0c0,72.563 19.095,126.03 57.286,160.401c36.281,34.372 97.387,51.558 183.316,51.558c53.467,-0 95.477,-11.457 127.939,-34.372c30.552,-24.824 45.829,-57.286 45.829,-99.296Z" style="fill:#fff;fill-rule:nonzero;"/></g><g><path d="M5059,2315.14c-154.673,-0 -280.702,-45.829 -376.179,-139.396c-95.477,-91.658 -143.215,-211.959 -143.215,-358.993l-0,-26.733c-0,-103.115 19.095,-194.773 57.286,-273.064c38.19,-80.2 93.567,-141.306 166.129,-183.315c74.472,-43.92 160.402,-64.924 261.607,-64.924c141.306,-0 253.969,43.919 336.079,131.757c82.11,87.839 122.21,210.049 122.21,368.541l-0,122.21l-624.419,-0c11.458,55.377 36.282,99.296 74.472,131.758c38.191,32.462 85.929,49.648 147.035,49.648c99.296,-0 177.587,-34.372 232.963,-105.025l143.215,169.949c-38.19,53.467 -93.567,97.386 -166.129,129.848c-72.563,30.553 -148.944,47.739 -231.054,47.739Zm-36.281,-803.915c-91.658,0 -147.035,61.106 -164.221,183.316l316.984,-0l-0,-24.824c1.909,-49.648 -11.458,-89.748 -38.191,-116.482c-26.734,-28.643 -64.924,-42.01 -114.572,-42.01Z" style="fill:#fff;fill-rule:nonzero;"/></g><g><path d="M6150.19,1572.33l-103.115,-7.639c-99.296,0 -162.31,30.553 -190.953,93.568l-0,637.784l-315.074,0l-0,-1008.23l295.978,-0l9.548,129.848c53.467,-99.296 126.029,-148.943 221.506,-148.943c32.462,-0 63.015,3.819 87.839,11.457l-5.729,292.159Z" style="fill:#fff;fill-rule:nonzero;"/></g><g><path d="M6611.71,1921.77l158.492,-633.966l332.259,-0l-330.35,1008.23l-320.802,0l-328.44,-1008.23l332.259,-0l156.582,633.966Z" style="fill:#fff;fill-rule:nonzero;"/></g><g><path d="M7601.34,2315.14c-154.673,-0 -280.702,-45.829 -376.179,-139.396c-95.477,-91.658 -143.215,-211.959 -143.215,-358.993l-0,-26.733c-0,-103.115 19.095,-194.773 57.286,-273.064c38.191,-80.2 93.567,-141.306 166.13,-183.315c74.472,-43.92 160.401,-64.924 261.606,-64.924c141.306,-0 253.969,43.919 336.079,131.757c82.11,87.839 122.21,210.049 122.21,368.541l0,122.21l-624.418,-0c11.457,55.377 36.281,99.296 74.472,131.758c38.19,32.462 85.929,49.648 147.034,49.648c99.296,-0 177.587,-34.372 232.963,-105.025l143.216,169.949c-38.191,53.467 -93.568,97.386 -166.13,129.848c-72.562,30.553 -148.944,47.739 -231.054,47.739Zm-36.281,-803.915c-91.658,0 -147.035,61.106 -164.22,183.316l316.983,-0l-0,-24.824c1.909,-49.648 -11.457,-89.748 -38.191,-116.482c-26.734,-28.643 -64.924,-42.01 -114.572,-42.01Z" style="fill:#fff;fill-rule:nonzero;"/></g><g><path d="M8692.49,1572.33l-103.115,-7.639c-99.296,0 -162.31,30.553 -190.953,93.568l-0,637.784l-315.074,0l-0,-1008.23l295.978,-0l9.548,129.848c53.467,-99.296 126.029,-148.943 221.506,-148.943c32.462,-0 63.015,3.819 87.839,11.457l-5.729,292.159Z" style="fill:#fff;fill-rule:nonzero;"/></g><g><path d="M9290.01,938.361l326.531,-0l0,931.853c0,85.929 -21.005,162.311 -61.105,231.054c-40.1,66.834 -95.477,120.301 -168.039,156.582c-70.653,38.19 -150.854,57.286 -238.692,57.286c-148.944,-0 -263.517,-38.191 -345.627,-112.663c-82.11,-74.472 -122.21,-179.496 -122.21,-316.983l326.531,0c-0,63.015 11.457,106.934 32.462,135.577c22.914,28.643 57.286,42.01 108.844,42.01c43.919,0 80.2,-17.186 105.024,-51.557c22.915,-32.462 36.281,-80.201 36.281,-141.306l0,-931.853Z" style="fill:#683eb2;fill-rule:nonzero;"/></g><g><path d="M10305.9,2296.04c-11.457,-21.004 -21.005,-51.557 -30.553,-89.748c-57.286,72.563 -137.486,108.844 -242.511,108.844c-95.477,-0 -175.677,-28.643 -242.511,-85.929c-66.834,-59.196 -99.296,-129.849 -99.296,-217.687c-0,-108.844 40.1,-192.863 120.301,-248.24c82.11,-55.376 198.592,-84.019 353.264,-84.019l97.387,-0l-0,-53.467c-0,-91.658 -40.101,-139.396 -120.301,-139.396c-74.472,-0 -112.663,36.281 -112.663,110.753l-313.164,-0c-0,-97.387 40.1,-175.678 124.12,-236.783c82.11,-61.105 189.044,-91.657 316.983,-91.657c127.939,-0 231.054,30.552 305.526,93.567c74.472,63.014 112.663,148.943 114.572,257.787l0,446.831c0,93.567 15.276,164.22 42.01,213.868l-0,15.276l-313.164,0Zm-196.682,-204.32c38.19,0 70.652,-9.547 97.386,-26.733c24.824,-15.277 43.919,-34.372 55.377,-55.377l-0,-162.31l-91.658,-0c-108.844,-0 -164.22,49.648 -164.22,147.034c-0,28.643 9.547,51.557 28.643,70.653c19.095,17.186 43.919,26.733 74.472,26.733Z" style="fill:#683eb2;fill-rule:nonzero;"/></g><g><path d="M11290.8,1572.33l-103.115,-7.639c-99.296,0 -162.311,30.553 -190.954,93.568l0,637.784l-315.073,0l-0,-1008.23l295.978,-0l9.548,129.848c53.467,-99.296 126.029,-148.943 221.506,-148.943c32.462,-0 63.015,3.819 87.839,11.457l-5.729,292.159Z" style="fill:#683eb2;fill-rule:nonzero;"/></g><g><path d="M11861.5,2013.43c-0,-26.733 -15.277,-49.648 -42.01,-64.924c-28.643,-17.186 -82.11,-32.462 -160.401,-49.648c-78.291,-19.095 -143.216,-42.01 -192.864,-68.743c-51.557,-28.643 -89.748,-63.015 -116.481,-103.115c-26.734,-40.1 -40.101,-87.839 -40.101,-139.396c0,-93.567 38.191,-169.949 114.573,-229.144c76.381,-59.196 175.677,-89.748 299.797,-89.748c133.668,-0 240.602,30.552 320.802,89.748c80.201,61.105 120.301,139.396 120.301,238.692l-315.074,-0c0,-82.11 -42.009,-122.211 -127.939,-122.211c-32.462,0 -59.195,9.548 -82.11,28.643c-22.914,17.186 -34.371,40.101 -34.371,68.744c-0,26.733 15.276,49.648 42.009,66.833c26.734,17.186 70.653,32.462 131.759,43.92c59.195,11.457 112.662,24.824 156.582,40.1c152.763,51.557 227.234,145.125 227.234,280.702c0,91.657 -40.1,166.129 -122.21,223.415c-82.11,59.196 -187.135,87.839 -316.983,87.839c-85.929,-0 -164.22,-15.276 -231.054,-47.739c-68.743,-30.552 -120.301,-72.562 -158.492,-126.029c-38.19,-53.467 -57.286,-110.753 -57.286,-168.039l294.069,0c1.909,45.829 17.186,80.2 45.829,101.205c30.552,21.005 68.743,32.462 114.572,32.462c43.919,0 76.382,-9.547 97.386,-26.733c21.005,-17.186 32.463,-40.1 32.463,-66.834Z" style="fill:#683eb2;fill-rule:nonzero;"/></g></g><g><g><clipPath id="_clip2"><path d="M14197.4,2898.04l-10244.9,-3680.12l-687.202,2050.63l8987.28,1964.58l1944.86,-335.083Z"/></clipPath><g clip-path="url(#_clip2)"><g><path d="M4159.66,1935.14c-0,-47.738 -15.277,-85.929 -49.648,-112.662c-34.372,-26.734 -93.568,-53.467 -179.497,-82.11c-84.02,-28.643 -154.672,-55.377 -208.139,-82.11c-175.678,-87.839 -263.517,-206.23 -263.517,-357.083c0,-74.472 21.005,-141.306 64.925,-198.592c43.919,-57.286 106.934,-103.115 187.134,-135.577c80.201,-30.553 169.949,-47.738 269.245,-47.738c97.386,-0 185.225,17.185 263.516,53.467c76.382,34.371 137.487,84.019 179.497,148.943c43.919,63.015 64.924,137.487 64.924,219.597l-326.531,-0c0,-55.377 -17.186,-97.386 -51.557,-127.939c-32.463,-30.553 -78.291,-45.829 -137.487,-45.829c-57.286,0 -105.025,11.457 -137.487,38.191c-34.371,24.824 -51.557,59.195 -51.557,97.386c-0,36.281 19.095,66.834 55.376,95.477c38.191,28.643 103.115,57.286 196.683,87.839c95.477,30.552 171.858,63.014 232.963,97.386c145.125,84.019 219.597,200.501 219.597,349.445c-0,118.391 -45.829,211.958 -135.577,280.701c-87.839,66.834 -211.959,101.206 -366.631,101.206c-110.753,-0 -210.049,-21.005 -299.798,-59.196c-89.748,-40.1 -156.582,-93.567 -200.501,-162.31c-45.829,-68.744 -68.743,-148.944 -68.743,-236.783l328.44,0c0,72.563 19.095,126.03 57.286,160.401c36.281,34.372 97.387,51.558 183.316,51.558c53.467,-0 95.477,-11.457 127.939,-34.372c30.552,-24.824 45.829,-57.286 45.829,-99.296Z" style="fill-opacity:0.16;fill-rule:nonzero;"/></g><g><path d="M5059,2315.14c-154.673,-0 -280.702,-45.829 -376.179,-139.396c-95.477,-91.658 -143.215,-211.959 -143.215,-358.993l-0,-26.733c-0,-103.115 19.095,-194.773 57.286,-273.064c38.19,-80.2 93.567,-141.306 166.129,-183.315c74.472,-43.92 160.402,-64.924 261.607,-64.924c141.306,-0 253.969,43.919 336.079,131.757c82.11,87.839 122.21,210.049 122.21,368.541l-0,122.21l-624.419,-0c11.458,55.377 36.282,99.296 74.472,131.758c38.191,32.462 85.929,49.648 147.035,49.648c99.296,-0 177.587,-34.372 232.963,-105.025l143.215,169.949c-38.19,53.467 -93.567,97.386 -166.129,129.848c-72.563,30.553 -148.944,47.739 -231.054,47.739Zm-36.281,-803.915c-91.658,0 -147.035,61.106 -164.221,183.316l316.984,-0l-0,-24.824c1.909,-49.648 -11.458,-89.748 -38.191,-116.482c-26.734,-28.643 -64.924,-42.01 -114.572,-42.01Z" style="fill-opacity:0.16;fill-rule:nonzero;"/></g><g><path d="M6150.19,1572.33l-103.115,-7.639c-99.296,0 -162.31,30.553 -190.953,93.568l-0,637.784l-315.074,0l-0,-1008.23l295.978,-0l9.548,129.848c53.467,-99.296 126.029,-148.943 221.506,-148.943c32.462,-0 63.015,3.819 87.839,11.457l-5.729,292.159Z" style="fill-opacity:0.16;fill-rule:nonzero;"/></g><g><path d="M6611.71,1921.77l158.492,-633.966l332.259,-0l-330.35,1008.23l-320.802,0l-328.44,-1008.23l332.259,-0l156.582,633.966Z" style="fill-opacity:0.16;fill-rule:nonzero;"/></g><g><path d="M7601.34,2315.14c-154.673,-0 -280.702,-45.829 -376.179,-139.396c-95.477,-91.658 -143.215,-211.959 -143.215,-358.993l-0,-26.733c-0,-103.115 19.095,-194.773 57.286,-273.064c38.191,-80.2 93.567,-141.306 166.13,-183.315c74.472,-43.92 160.401,-64.924 261.606,-64.924c141.306,-0 253.969,43.919 336.079,131.757c82.11,87.839 122.21,210.049 122.21,368.541l0,122.21l-624.418,-0c11.457,55.377 36.281,99.296 74.472,131.758c38.19,32.462 85.929,49.648 147.034,49.648c99.296,-0 177.587,-34.372 232.963,-105.025l143.216,169.949c-38.191,53.467 -93.568,97.386 -166.13,129.848c-72.562,30.553 -148.944,47.739 -231.054,47.739Zm-36.281,-803.915c-91.658,0 -147.035,61.106 -164.22,183.316l316.983,-0l-0,-24.824c1.909,-49.648 -11.457,-89.748 -38.191,-116.482c-26.734,-28.643 -64.924,-42.01 -114.572,-42.01Z" style="fill-opacity:0.16;fill-rule:nonzero;"/></g><g><path d="M8692.49,1572.33l-103.115,-7.639c-99.296,0 -162.31,30.553 -190.953,93.568l-0,637.784l-315.074,0l-0,-1008.23l295.978,-0l9.548,129.848c53.467,-99.296 126.029,-148.943 221.506,-148.943c32.462,-0 63.015,3.819 87.839,11.457l-5.729,292.159Z" style="fill-opacity:0.16;fill-rule:nonzero;"/></g><g><path d="M9290.01,938.361l326.531,-0l0,931.853c0,85.929 -21.005,162.311 -61.105,231.054c-40.1,66.834 -95.477,120.301 -168.039,156.582c-70.653,38.19 -150.854,57.286 -238.692,57.286c-148.944,-0 -263.517,-38.191 -345.627,-112.663c-82.11,-74.472 -122.21,-179.496 -122.21,-316.983l326.531,0c-0,63.015 11.457,106.934 32.462,135.577c22.914,28.643 57.286,42.01 108.844,42.01c43.919,0 80.2,-17.186 105.024,-51.557c22.915,-32.462 36.281,-80.201 36.281,-141.306l0,-931.853Z" style="fill-opacity:0.16;fill-rule:nonzero;"/></g><g><path d="M10305.9,2296.04c-11.457,-21.004 -21.005,-51.557 -30.553,-89.748c-57.286,72.563 -137.486,108.844 -242.511,108.844c-95.477,-0 -175.677,-28.643 -242.511,-85.929c-66.834,-59.196 -99.296,-129.849 -99.296,-217.687c-0,-108.844 40.1,-192.863 120.301,-248.24c82.11,-55.376 198.592,-84.019 353.264,-84.019l97.387,-0l-0,-53.467c-0,-91.658 -40.101,-139.396 -120.301,-139.396c-74.472,-0 -112.663,36.281 -112.663,110.753l-313.164,-0c-0,-97.387 40.1,-175.678 124.12,-236.783c82.11,-61.105 189.044,-91.657 316.983,-91.657c127.939,-0 231.054,30.552 305.526,93.567c74.472,63.014 112.663,148.943 114.572,257.787l0,446.831c0,93.567 15.276,164.22 42.01,213.868l-0,15.276l-313.164,0Zm-196.682,-204.32c38.19,0 70.652,-9.547 97.386,-26.733c24.824,-15.277 43.919,-34.372 55.377,-55.377l-0,-162.31l-91.658,-0c-108.844,-0 -164.22,49.648 -164.22,147.034c-0,28.643 9.547,51.557 28.643,70.653c19.095,17.186 43.919,26.733 74.472,26.733Z" style="fill-opacity:0.16;fill-rule:nonzero;"/></g><g><path d="M11290.8,1572.33l-103.115,-7.639c-99.296,0 -162.311,30.553 -190.954,93.568l0,637.784l-315.073,0l-0,-1008.23l295.978,-0l9.548,129.848c53.467,-99.296 126.029,-148.943 221.506,-148.943c32.462,-0 63.015,3.819 87.839,11.457l-5.729,292.159Z" style="fill-opacity:0.16;fill-rule:nonzero;"/></g><g><path d="M11861.5,2013.43c-0,-26.733 -15.277,-49.648 -42.01,-64.924c-28.643,-17.186 -82.11,-32.462 -160.401,-49.648c-78.291,-19.095 -143.216,-42.01 -192.864,-68.743c-51.557,-28.643 -89.748,-63.015 -116.481,-103.115c-26.734,-40.1 -40.101,-87.839 -40.101,-139.396c0,-93.567 38.191,-169.949 114.573,-229.144c76.381,-59.196 175.677,-89.748 299.797,-89.748c133.668,-0 240.602,30.552 320.802,89.748c80.201,61.105 120.301,139.396 120.301,238.692l-315.074,-0c0,-82.11 -42.009,-122.211 -127.939,-122.211c-32.462,0 -59.195,9.548 -82.11,28.643c-22.914,17.186 -34.371,40.101 -34.371,68.744c-0,26.733 15.276,49.648 42.009,66.833c26.734,17.186 70.653,32.462 131.759,43.92c59.195,11.457 112.662,24.824 156.582,40.1c152.763,51.557 227.234,145.125 227.234,280.702c0,91.657 -40.1,166.129 -122.21,223.415c-82.11,59.196 -187.135,87.839 -316.983,87.839c-85.929,-0 -164.22,-15.276 -231.054,-47.739c-68.743,-30.552 -120.301,-72.562 -158.492,-126.029c-38.19,-53.467 -57.286,-110.753 -57.286,-168.039l294.069,0c1.909,45.829 17.186,80.2 45.829,101.205c30.552,21.005 68.743,32.462 114.572,32.462c43.919,0 76.382,-9.547 97.386,-26.733c21.005,-17.186 32.463,-40.1 32.463,-66.834Z" style="fill-opacity:0.16;fill-rule:nonzero;"/></g></g></g></g></g></g><g transform="matrix(0.999992,-0.00401707,0.00401707,0.999992,-0.997836,13.1056)"><text x="3963.31px" y="504.387px" style="font-family:'RobotoMono-Regular', 'Roboto Mono';font-size:600px;fill:#2196f3;">POWERED BY:</text></g></g><defs><linearGradient id="_Linear1" x1="0" y1="0" x2="1" y2="0" gradientUnits="userSpaceOnUse" gradientTransform="matrix(2248.29,0,0,2248.28,467.483,1887.41)"><stop offset="0" style="stop-color:#b700a5;stop-opacity:1"/><stop offset="1" style="stop-color:#6342b3;stop-opacity:1"/></linearGradient></defs></svg>